<svg xmlns="http://www.w3.org/2000/svg" xmlns:xlink="http://www.w3.org/1999/xlink" width="250" zoomAndPan="magnify" viewBox="0 0 187.5 112.499997" height="150" preserveAspectRatio="xMidYMid meet" version="1.0"><defs><g/><clipPath id="1001f039f1"><path d="M 74.109375 14.53125 L 113.039062 14.53125 L 113.039062 53.464844 L 74.109375 53.464844 Z M 74.109375 14.53125 " clip-rule="nonzero"/></clipPath></defs><g clip-path="url(#1001f039f1)"><path fill="#f15412" d="M 113.019531 28.90625 L 113.019531 27.804688 C 113.007812 27.753906 113.003906 27.703125 113 27.648438 C 112.988281 27.605469 112.976562 27.542969 112.972656 27.53125 L 112.996094 27.511719 L 112.996094 27.441406 C 112.996094 27.441406 112.96875 27.335938 112.964844 27.324219 L 112.976562 27.316406 L 112.878906 27.371094 L 112.75 27.207031 C 112.714844 27.183594 112.574219 27.0625 112.542969 27.03125 L 94.050781 14.699219 C 93.730469 14.488281 93.414062 14.488281 93.09375 14.699219 L 74.511719 27.085938 L 74.371094 27.207031 C 74.351562 27.242188 74.265625 27.351562 74.242188 27.382812 C 74.21875 27.453125 74.1875 27.515625 74.140625 27.570312 L 74.140625 27.609375 L 74.128906 28.902344 L 74.128906 40.191406 L 74.160156 40.398438 C 74.199219 40.480469 74.230469 40.5625 74.257812 40.648438 C 74.273438 40.664062 74.386719 40.800781 74.402344 40.816406 C 74.480469 40.871094 74.554688 40.929688 74.621094 40.992188 L 93.097656 53.296875 C 93.417969 53.503906 93.738281 53.503906 94.058594 53.296875 L 112.636719 40.910156 L 112.78125 40.789062 C 112.8125 40.738281 112.851562 40.691406 112.890625 40.644531 C 112.902344 40.617188 112.96875 40.496094 112.984375 40.46875 C 113 40.441406 113 40.386719 113.011719 40.335938 C 113.011719 40.308594 113.019531 40.28125 113.023438 40.253906 Z M 94.4375 26.605469 L 94.4375 18.460938 C 94.4375 18.109375 94.59375 17.847656 94.90625 17.679688 C 95.21875 17.515625 95.519531 17.527344 95.816406 17.726562 L 109.5 26.851562 C 109.761719 27.027344 109.894531 27.273438 109.894531 27.589844 C 109.886719 27.625 109.878906 27.664062 109.867188 27.699219 C 109.878906 27.734375 109.886719 27.769531 109.894531 27.808594 C 109.894531 28.121094 109.761719 28.367188 109.5 28.542969 L 103.386719 32.628906 C 103.238281 32.730469 103.074219 32.78125 102.894531 32.78125 C 102.714844 32.78125 102.550781 32.730469 102.402344 32.628906 L 94.824219 27.566406 C 94.5625 27.394531 94.429688 27.148438 94.429688 26.832031 Z M 77.253906 27.582031 C 77.257812 27.269531 77.386719 27.027344 77.648438 26.851562 L 91.335938 17.71875 C 91.628906 17.523438 91.933594 17.507812 92.246094 17.671875 C 92.558594 17.839844 92.714844 18.101562 92.714844 18.453125 L 92.714844 26.832031 C 92.714844 27.148438 92.582031 27.394531 92.320312 27.566406 L 84.742188 32.628906 C 84.59375 32.730469 84.429688 32.78125 84.25 32.78125 C 84.074219 32.78125 83.910156 32.730469 83.761719 32.628906 L 77.648438 28.542969 C 77.382812 28.367188 77.25 28.121094 77.25 27.804688 C 77.253906 27.769531 77.265625 27.734375 77.277344 27.695312 C 77.265625 27.660156 77.253906 27.625 77.25 27.589844 Z M 76.742188 37.804688 C 76.5 37.804688 76.289062 37.714844 76.117188 37.542969 C 75.945312 37.371094 75.859375 37.164062 75.859375 36.917969 L 75.859375 31.078125 C 75.855469 30.722656 76.011719 30.464844 76.324219 30.296875 C 76.636719 30.128906 76.941406 30.144531 77.234375 30.34375 L 81.605469 33.265625 C 81.863281 33.441406 81.992188 33.6875 81.992188 34 C 81.992188 34.3125 81.863281 34.558594 81.601562 34.734375 L 77.230469 37.65625 C 77.078125 37.757812 76.914062 37.808594 76.734375 37.808594 Z M 92.71875 49.304688 C 92.71875 49.550781 92.632812 49.757812 92.460938 49.929688 C 92.289062 50.105469 92.078125 50.191406 91.835938 50.191406 C 91.65625 50.191406 91.492188 50.140625 91.34375 50.042969 L 77.648438 40.925781 C 77.523438 40.84375 77.425781 40.738281 77.359375 40.609375 C 77.289062 40.476562 77.253906 40.339844 77.253906 40.191406 C 77.253906 40.042969 77.289062 39.902344 77.359375 39.773438 C 77.425781 39.640625 77.523438 39.535156 77.648438 39.453125 L 83.765625 35.367188 C 83.914062 35.265625 84.078125 35.214844 84.257812 35.214844 C 84.4375 35.214844 84.601562 35.265625 84.75 35.367188 L 92.324219 40.4375 C 92.585938 40.613281 92.71875 40.855469 92.71875 41.171875 Z M 93.574219 39.019531 C 93.394531 39.019531 93.230469 38.96875 93.082031 38.871094 L 86.902344 34.738281 C 86.640625 34.558594 86.507812 34.3125 86.511719 34 C 86.515625 33.960938 86.527344 33.925781 86.539062 33.890625 C 86.527344 33.851562 86.515625 33.816406 86.511719 33.777344 C 86.511719 33.460938 86.640625 33.21875 86.902344 33.042969 L 93.082031 28.90625 C 93.410156 28.691406 93.738281 28.691406 94.066406 28.90625 L 100.246094 33.042969 C 100.507812 33.214844 100.640625 33.460938 100.640625 33.777344 C 100.632812 33.816406 100.621094 33.851562 100.609375 33.890625 C 100.621094 33.925781 100.632812 33.960938 100.640625 34 C 100.640625 34.3125 100.507812 34.558594 100.246094 34.734375 L 94.066406 38.867188 C 93.914062 38.96875 93.753906 39.015625 93.574219 39.019531 Z M 109.5 40.925781 L 95.804688 50.050781 C 95.65625 50.152344 95.492188 50.199219 95.3125 50.199219 C 95.070312 50.199219 94.863281 50.113281 94.6875 49.941406 C 94.515625 49.765625 94.429688 49.558594 94.429688 49.3125 L 94.429688 41.175781 C 94.429688 40.859375 94.558594 40.613281 94.824219 40.4375 L 102.402344 35.367188 C 102.550781 35.269531 102.714844 35.21875 102.894531 35.21875 C 103.074219 35.21875 103.238281 35.269531 103.386719 35.367188 L 109.5 39.453125 C 109.621094 39.535156 109.71875 39.640625 109.789062 39.773438 C 109.859375 39.902344 109.894531 40.042969 109.894531 40.191406 C 109.894531 40.339844 109.859375 40.476562 109.789062 40.609375 C 109.71875 40.738281 109.621094 40.84375 109.5 40.925781 Z M 111.292969 36.921875 C 111.292969 37.167969 111.207031 37.375 111.03125 37.550781 C 110.859375 37.722656 110.652344 37.808594 110.40625 37.808594 C 110.226562 37.808594 110.0625 37.757812 109.914062 37.65625 L 105.546875 34.734375 C 105.425781 34.652344 105.328125 34.542969 105.261719 34.414062 C 105.191406 34.285156 105.15625 34.148438 105.15625 34 C 105.15625 33.855469 105.191406 33.714844 105.261719 33.585938 C 105.328125 33.457031 105.425781 33.351562 105.546875 33.269531 L 109.914062 30.339844 C 110.207031 30.144531 110.511719 30.128906 110.824219 30.292969 C 111.136719 30.460938 111.292969 30.722656 111.292969 31.078125 Z M 111.292969 36.921875 " fill-opacity="1" fill-rule="nonzero"/></g><g fill="#1778f2" fill-opacity="1"><g transform="translate(10.943936, 79.838462)"><g><path d="M 13.984375 -9.078125 L 17.703125 -9.078125 L 17.703125 -1.9375 C 16.742188 -1.21875 15.632812 -0.664062 14.375 -0.28125 C 13.125 0.101562 11.859375 0.296875 10.578125 0.296875 C 8.753906 0.296875 7.113281 -0.0859375 5.65625 -0.859375 C 4.195312 -1.640625 3.050781 -2.722656 2.21875 -4.109375 C 1.394531 -5.492188 0.984375 -7.054688 0.984375 -8.796875 C 0.984375 -10.535156 1.394531 -12.097656 2.21875 -13.484375 C 3.050781 -14.867188 4.203125 -15.953125 5.671875 -16.734375 C 7.148438 -17.515625 8.8125 -17.90625 10.65625 -17.90625 C 12.195312 -17.90625 13.597656 -17.644531 14.859375 -17.125 C 16.117188 -16.601562 17.175781 -15.847656 18.03125 -14.859375 L 15.40625 -12.4375 C 14.15625 -13.769531 12.640625 -14.4375 10.859375 -14.4375 C 9.734375 -14.4375 8.734375 -14.195312 7.859375 -13.71875 C 6.992188 -13.25 6.316406 -12.585938 5.828125 -11.734375 C 5.347656 -10.878906 5.109375 -9.898438 5.109375 -8.796875 C 5.109375 -7.710938 5.347656 -6.738281 5.828125 -5.875 C 6.316406 -5.019531 6.992188 -4.351562 7.859375 -3.875 C 8.722656 -3.40625 9.707031 -3.171875 10.8125 -3.171875 C 11.976562 -3.171875 13.035156 -3.421875 13.984375 -3.921875 Z M 13.984375 -9.078125 "/></g></g></g><g fill="#1778f2" fill-opacity="1"><g transform="translate(32.590099, 79.838462)"><g><path d="M 9.90625 0.296875 C 7.394531 0.296875 5.4375 -0.394531 4.03125 -1.78125 C 2.632812 -3.175781 1.9375 -5.164062 1.9375 -7.75 L 1.9375 -17.59375 L 6.015625 -17.59375 L 6.015625 -7.890625 C 6.015625 -4.742188 7.320312 -3.171875 9.9375 -3.171875 C 11.207031 -3.171875 12.175781 -3.550781 12.84375 -4.3125 C 13.519531 -5.070312 13.859375 -6.265625 13.859375 -7.890625 L 13.859375 -17.59375 L 17.875 -17.59375 L 17.875 -7.75 C 17.875 -5.164062 17.171875 -3.175781 15.765625 -1.78125 C 14.367188 -0.394531 12.414062 0.296875 9.90625 0.296875 Z M 9.90625 0.296875 "/></g></g></g><g fill="#1778f2" fill-opacity="1"><g transform="translate(54.663628, 79.838462)"><g><path d="M 13.296875 0 L 9.90625 -4.90625 L 6.15625 -4.90625 L 6.15625 0 L 2.09375 0 L 2.09375 -17.59375 L 9.703125 -17.59375 C 11.265625 -17.59375 12.617188 -17.332031 13.765625 -16.8125 C 14.910156 -16.300781 15.789062 -15.566406 16.40625 -14.609375 C 17.03125 -13.648438 17.34375 -12.519531 17.34375 -11.21875 C 17.34375 -9.90625 17.03125 -8.773438 16.40625 -7.828125 C 15.78125 -6.878906 14.890625 -6.15625 13.734375 -5.65625 L 17.671875 0 Z M 13.21875 -11.21875 C 13.21875 -12.207031 12.898438 -12.960938 12.265625 -13.484375 C 11.628906 -14.015625 10.703125 -14.28125 9.484375 -14.28125 L 6.15625 -14.28125 L 6.15625 -8.140625 L 9.484375 -8.140625 C 10.703125 -8.140625 11.628906 -8.40625 12.265625 -8.9375 C 12.898438 -9.476562 13.21875 -10.238281 13.21875 -11.21875 Z M 13.21875 -11.21875 "/></g></g></g><g fill="#1778f2" fill-opacity="1"><g transform="translate(75.404784, 79.838462)"><g><path d="M 9.90625 0.296875 C 7.394531 0.296875 5.4375 -0.394531 4.03125 -1.78125 C 2.632812 -3.175781 1.9375 -5.164062 1.9375 -7.75 L 1.9375 -17.59375 L 6.015625 -17.59375 L 6.015625 -7.890625 C 6.015625 -4.742188 7.320312 -3.171875 9.9375 -3.171875 C 11.207031 -3.171875 12.175781 -3.550781 12.84375 -4.3125 C 13.519531 -5.070312 13.859375 -6.265625 13.859375 -7.890625 L 13.859375 -17.59375 L 17.875 -17.59375 L 17.875 -7.75 C 17.875 -5.164062 17.171875 -3.175781 15.765625 -1.78125 C 14.367188 -0.394531 12.414062 0.296875 9.90625 0.296875 Z M 9.90625 0.296875 "/></g></g></g><g fill="#1778f2" fill-opacity="1"><g transform="translate(97.478313, 79.838462)"><g><path d="M 2.09375 -17.59375 L 10.078125 -17.59375 C 11.992188 -17.59375 13.679688 -17.226562 15.140625 -16.5 C 16.609375 -15.769531 17.75 -14.742188 18.5625 -13.421875 C 19.375 -12.097656 19.78125 -10.554688 19.78125 -8.796875 C 19.78125 -7.035156 19.375 -5.492188 18.5625 -4.171875 C 17.75 -2.847656 16.609375 -1.820312 15.140625 -1.09375 C 13.679688 -0.363281 11.992188 0 10.078125 0 L 2.09375 0 Z M 9.875 -3.34375 C 11.632812 -3.34375 13.035156 -3.832031 14.078125 -4.8125 C 15.128906 -5.789062 15.65625 -7.117188 15.65625 -8.796875 C 15.65625 -10.472656 15.128906 -11.800781 14.078125 -12.78125 C 13.035156 -13.757812 11.632812 -14.25 9.875 -14.25 L 6.15625 -14.25 L 6.15625 -3.34375 Z M 9.875 -3.34375 "/></g></g></g><g fill="#1778f2" fill-opacity="1"><g transform="translate(120.507132, 79.838462)"><g><path d="M 15.71875 -3.265625 L 15.71875 0 L 2.09375 0 L 2.09375 -17.59375 L 15.390625 -17.59375 L 15.390625 -14.328125 L 6.140625 -14.328125 L 6.140625 -10.515625 L 14.3125 -10.515625 L 14.3125 -7.34375 L 6.140625 -7.34375 L 6.140625 -3.265625 Z M 15.71875 -3.265625 "/></g></g></g><g fill="#1778f2" fill-opacity="1"><g transform="translate(139.639383, 79.838462)"><g><path d="M 7.875 0.296875 C 6.476562 0.296875 5.128906 0.109375 3.828125 -0.265625 C 2.535156 -0.640625 1.492188 -1.128906 0.703125 -1.734375 L 2.09375 -4.796875 C 2.84375 -4.242188 3.734375 -3.800781 4.765625 -3.46875 C 5.804688 -3.132812 6.847656 -2.96875 7.890625 -2.96875 C 9.046875 -2.96875 9.898438 -3.140625 10.453125 -3.484375 C 11.003906 -3.828125 11.28125 -4.285156 11.28125 -4.859375 C 11.28125 -5.273438 11.117188 -5.617188 10.796875 -5.890625 C 10.472656 -6.171875 10.054688 -6.394531 9.546875 -6.5625 C 9.035156 -6.726562 8.34375 -6.910156 7.46875 -7.109375 C 6.125 -7.429688 5.023438 -7.75 4.171875 -8.0625 C 3.316406 -8.382812 2.582031 -8.894531 1.96875 -9.59375 C 1.363281 -10.300781 1.0625 -11.242188 1.0625 -12.421875 C 1.0625 -13.441406 1.335938 -14.363281 1.890625 -15.1875 C 2.441406 -16.019531 3.273438 -16.679688 4.390625 -17.171875 C 5.503906 -17.660156 6.863281 -17.90625 8.46875 -17.90625 C 9.59375 -17.90625 10.691406 -17.769531 11.765625 -17.5 C 12.835938 -17.226562 13.773438 -16.84375 14.578125 -16.34375 L 13.328125 -13.25 C 11.703125 -14.164062 10.078125 -14.625 8.453125 -14.625 C 7.304688 -14.625 6.460938 -14.441406 5.921875 -14.078125 C 5.378906 -13.710938 5.109375 -13.226562 5.109375 -12.625 C 5.109375 -12.019531 5.421875 -11.566406 6.046875 -11.265625 C 6.671875 -10.972656 7.628906 -10.6875 8.921875 -10.40625 C 10.265625 -10.09375 11.363281 -9.773438 12.21875 -9.453125 C 13.070312 -9.128906 13.800781 -8.625 14.40625 -7.9375 C 15.019531 -7.25 15.328125 -6.320312 15.328125 -5.15625 C 15.328125 -4.144531 15.046875 -3.222656 14.484375 -2.390625 C 13.929688 -1.566406 13.09375 -0.910156 11.96875 -0.421875 C 10.84375 0.0546875 9.476562 0.296875 7.875 0.296875 Z M 7.875 0.296875 "/></g></g></g><g fill="#1778f2" fill-opacity="1"><g transform="translate(157.942058, 79.838462)"><g><path d="M 8.5 -6.90625 L 6.140625 -4.453125 L 6.140625 0 L 2.09375 0 L 2.09375 -17.59375 L 6.140625 -17.59375 L 6.140625 -9.375 L 13.921875 -17.59375 L 18.453125 -17.59375 L 11.15625 -9.75 L 18.875 0 L 14.125 0 Z M 8.5 -6.90625 "/></g></g></g></svg>