<svg xmlns="http://www.w3.org/2000/svg" xmlns:xlink="http://www.w3.org/1999/xlink" width="250" zoomAndPan="magnify" viewBox="0 0 187.5 74.999997" height="100" preserveAspectRatio="xMidYMid meet" version="1.0"><defs><g/><clipPath id="603e92269c"><path d="M 0 0.101562 L 187 0.101562 L 187 74.898438 L 0 74.898438 Z M 0 0.101562 " clip-rule="nonzero"/></clipPath><clipPath id="7095a61b00"><path d="M 11.730469 20.058594 L 46.980469 20.058594 L 46.980469 55.308594 L 11.730469 55.308594 Z M 11.730469 20.058594 " clip-rule="nonzero"/></clipPath></defs><g clip-path="url(#603e92269c)"><path fill="#ffffff" d="M 0 0.101562 L 187.5 0.101562 L 187.5 82.601562 L 0 82.601562 Z M 0 0.101562 " fill-opacity="1" fill-rule="nonzero"/><path fill="#ffffff" d="M 0 0.101562 L 187.5 0.101562 L 187.5 75.101562 L 0 75.101562 Z M 0 0.101562 " fill-opacity="1" fill-rule="nonzero"/><path fill="#ffffff" d="M 0 0.101562 L 187.5 0.101562 L 187.5 75.101562 L 0 75.101562 Z M 0 0.101562 " fill-opacity="1" fill-rule="nonzero"/></g><g clip-path="url(#7095a61b00)"><path fill="#f15412" d="M 46.964844 33.070312 L 46.964844 32.074219 C 46.953125 32.027344 46.949219 31.980469 46.945312 31.933594 C 46.9375 31.894531 46.921875 31.839844 46.917969 31.828125 L 46.941406 31.808594 L 46.941406 31.746094 C 46.941406 31.746094 46.917969 31.652344 46.914062 31.640625 L 46.925781 31.632812 L 46.835938 31.679688 L 46.722656 31.535156 C 46.6875 31.511719 46.5625 31.402344 46.53125 31.375 L 29.789062 20.207031 C 29.5 20.015625 29.210938 20.015625 28.921875 20.207031 L 12.097656 31.421875 L 11.96875 31.53125 C 11.953125 31.5625 11.875 31.664062 11.851562 31.691406 C 11.832031 31.753906 11.800781 31.8125 11.761719 31.863281 L 11.761719 31.898438 L 11.75 33.070312 L 11.75 43.292969 L 11.777344 43.480469 C 11.8125 43.550781 11.84375 43.628906 11.867188 43.703125 C 11.878906 43.71875 11.984375 43.84375 11.996094 43.855469 C 12.066406 43.90625 12.136719 43.957031 12.195312 44.015625 L 28.925781 55.15625 C 29.214844 55.34375 29.503906 55.34375 29.792969 55.15625 L 46.617188 43.941406 L 46.746094 43.832031 C 46.777344 43.789062 46.8125 43.742188 46.847656 43.703125 C 46.855469 43.675781 46.917969 43.566406 46.929688 43.542969 C 46.945312 43.515625 46.945312 43.464844 46.957031 43.421875 C 46.957031 43.398438 46.960938 43.371094 46.96875 43.347656 Z M 30.140625 30.988281 L 30.140625 23.617188 C 30.140625 23.296875 30.28125 23.058594 30.5625 22.910156 C 30.84375 22.757812 31.121094 22.769531 31.386719 22.949219 L 43.777344 31.214844 C 44.015625 31.371094 44.132812 31.59375 44.132812 31.878906 C 44.128906 31.914062 44.117188 31.945312 44.109375 31.980469 C 44.117188 32.011719 44.128906 32.042969 44.132812 32.078125 C 44.132812 32.363281 44.015625 32.585938 43.777344 32.742188 L 38.242188 36.445312 C 37.945312 36.644531 37.644531 36.644531 37.347656 36.445312 L 30.488281 31.859375 C 30.253906 31.703125 30.132812 31.480469 30.132812 31.195312 Z M 14.582031 31.875 C 14.582031 31.59375 14.699219 31.371094 14.933594 31.214844 L 27.332031 22.941406 C 27.597656 22.765625 27.871094 22.75 28.152344 22.902344 C 28.4375 23.054688 28.578125 23.289062 28.578125 23.609375 L 28.578125 31.195312 C 28.578125 31.480469 28.457031 31.703125 28.21875 31.859375 L 21.359375 36.445312 C 21.0625 36.644531 20.769531 36.644531 20.472656 36.445312 L 14.933594 32.742188 C 14.695312 32.585938 14.574219 32.363281 14.574219 32.074219 C 14.582031 32.042969 14.589844 32.011719 14.601562 31.976562 C 14.589844 31.945312 14.582031 31.914062 14.574219 31.878906 Z M 14.117188 41.128906 C 13.894531 41.128906 13.707031 41.050781 13.550781 40.894531 C 13.394531 40.738281 13.316406 40.546875 13.316406 40.328125 L 13.316406 35.039062 C 13.316406 34.71875 13.457031 34.484375 13.738281 34.332031 C 14.023438 34.179688 14.296875 34.195312 14.5625 34.375 L 18.519531 37.019531 C 18.753906 37.179688 18.871094 37.402344 18.871094 37.683594 C 18.871094 37.96875 18.753906 38.191406 18.515625 38.351562 L 14.558594 40.996094 C 14.421875 41.085938 14.273438 41.132812 14.109375 41.132812 Z M 28.582031 51.542969 C 28.582031 51.765625 28.503906 51.953125 28.347656 52.109375 C 28.191406 52.265625 28.003906 52.34375 27.78125 52.34375 C 27.621094 52.34375 27.472656 52.300781 27.335938 52.210938 L 14.933594 43.957031 C 14.824219 43.882812 14.738281 43.785156 14.671875 43.667969 C 14.609375 43.550781 14.578125 43.421875 14.578125 43.289062 C 14.578125 43.15625 14.609375 43.03125 14.671875 42.910156 C 14.738281 42.792969 14.824219 42.699219 14.933594 42.625 L 20.472656 38.921875 C 20.773438 38.722656 21.070312 38.722656 21.367188 38.921875 L 28.226562 43.511719 C 28.464844 43.671875 28.582031 43.894531 28.582031 44.179688 Z M 29.355469 42.230469 C 29.195312 42.226562 29.046875 42.183594 28.910156 42.09375 L 23.316406 38.351562 C 23.078125 38.191406 22.960938 37.96875 22.960938 37.683594 C 22.96875 37.648438 22.976562 37.617188 22.984375 37.585938 C 22.976562 37.550781 22.96875 37.515625 22.960938 37.484375 C 22.960938 37.199219 23.078125 36.976562 23.316406 36.816406 L 28.910156 33.074219 C 29.207031 32.878906 29.503906 32.878906 29.800781 33.074219 L 35.398438 36.816406 C 35.636719 36.976562 35.753906 37.199219 35.753906 37.484375 C 35.746094 37.515625 35.738281 37.550781 35.726562 37.585938 C 35.738281 37.617188 35.746094 37.648438 35.753906 37.683594 C 35.753906 37.96875 35.636719 38.191406 35.398438 38.351562 L 29.800781 42.09375 C 29.667969 42.183594 29.519531 42.226562 29.355469 42.230469 Z M 43.777344 43.957031 L 31.378906 52.21875 C 31.242188 52.308594 31.09375 52.351562 30.933594 52.351562 C 30.710938 52.351562 30.523438 52.273438 30.367188 52.117188 C 30.210938 51.960938 30.132812 51.773438 30.132812 51.550781 L 30.132812 44.179688 C 30.132812 43.894531 30.25 43.671875 30.488281 43.515625 L 37.347656 38.921875 C 37.648438 38.722656 37.945312 38.722656 38.242188 38.921875 L 43.777344 42.625 C 43.886719 42.699219 43.976562 42.792969 44.039062 42.910156 C 44.101562 43.03125 44.132812 43.15625 44.132812 43.289062 C 44.132812 43.421875 44.101562 43.550781 44.039062 43.667969 C 43.976562 43.785156 43.886719 43.882812 43.777344 43.957031 Z M 45.398438 40.332031 C 45.398438 40.554688 45.320312 40.742188 45.164062 40.898438 C 45.007812 41.054688 44.820312 41.132812 44.597656 41.132812 C 44.433594 41.132812 44.285156 41.085938 44.152344 40.996094 L 40.195312 38.347656 C 40.085938 38.273438 40 38.179688 39.9375 38.0625 C 39.875 37.941406 39.84375 37.816406 39.84375 37.683594 C 39.84375 37.550781 39.875 37.425781 39.9375 37.308594 C 40 37.191406 40.085938 37.097656 40.195312 37.023438 L 44.152344 34.371094 C 44.417969 34.191406 44.691406 34.179688 44.976562 34.328125 C 45.257812 34.480469 45.398438 34.71875 45.398438 35.039062 Z M 45.398438 40.332031 " fill-opacity="1" fill-rule="nonzero"/></g><g fill="#ffffff" fill-opacity="1"><g transform="translate(53.870479, 43.074972)"><g><path d="M 10.546875 -6.84375 L 13.359375 -6.84375 L 13.359375 -1.453125 C 12.628906 -0.910156 11.789062 -0.492188 10.84375 -0.203125 C 9.894531 0.0859375 8.941406 0.234375 7.984375 0.234375 C 6.609375 0.234375 5.367188 -0.0546875 4.265625 -0.640625 C 3.171875 -1.234375 2.304688 -2.050781 1.671875 -3.09375 C 1.046875 -4.144531 0.734375 -5.328125 0.734375 -6.640625 C 0.734375 -7.953125 1.046875 -9.128906 1.671875 -10.171875 C 2.304688 -11.210938 3.175781 -12.023438 4.28125 -12.609375 C 5.394531 -13.203125 6.648438 -13.5 8.046875 -13.5 C 9.203125 -13.5 10.253906 -13.300781 11.203125 -12.90625 C 12.160156 -12.519531 12.957031 -11.953125 13.59375 -11.203125 L 11.625 -9.390625 C 10.675781 -10.390625 9.53125 -10.890625 8.1875 -10.890625 C 7.34375 -10.890625 6.59375 -10.710938 5.9375 -10.359375 C 5.28125 -10.003906 4.765625 -9.503906 4.390625 -8.859375 C 4.023438 -8.210938 3.84375 -7.472656 3.84375 -6.640625 C 3.84375 -5.816406 4.023438 -5.082031 4.390625 -4.4375 C 4.765625 -3.789062 5.273438 -3.285156 5.921875 -2.921875 C 6.578125 -2.566406 7.320312 -2.390625 8.15625 -2.390625 C 9.039062 -2.390625 9.835938 -2.578125 10.546875 -2.953125 Z M 10.546875 -6.84375 "/></g></g></g><g fill="#ffffff" fill-opacity="1"><g transform="translate(70.206619, 43.074972)"><g><path d="M 7.46875 0.234375 C 5.570312 0.234375 4.09375 -0.289062 3.03125 -1.34375 C 1.976562 -2.394531 1.453125 -3.894531 1.453125 -5.84375 L 1.453125 -13.28125 L 4.53125 -13.28125 L 4.53125 -5.953125 C 4.53125 -3.578125 5.519531 -2.390625 7.5 -2.390625 C 8.457031 -2.390625 9.1875 -2.675781 9.6875 -3.25 C 10.195312 -3.820312 10.453125 -4.722656 10.453125 -5.953125 L 10.453125 -13.28125 L 13.484375 -13.28125 L 13.484375 -5.84375 C 13.484375 -3.894531 12.953125 -2.394531 11.890625 -1.34375 C 10.835938 -0.289062 9.363281 0.234375 7.46875 0.234375 Z M 7.46875 0.234375 "/></g></g></g><g fill="#ffffff" fill-opacity="1"><g transform="translate(86.865286, 43.074972)"><g><path d="M 10.03125 0 L 7.46875 -3.703125 L 4.640625 -3.703125 L 4.640625 0 L 1.578125 0 L 1.578125 -13.28125 L 7.328125 -13.28125 C 8.503906 -13.28125 9.523438 -13.082031 10.390625 -12.6875 C 11.253906 -12.300781 11.921875 -11.742188 12.390625 -11.015625 C 12.859375 -10.296875 13.09375 -9.441406 13.09375 -8.453125 C 13.09375 -7.472656 12.851562 -6.625 12.375 -5.90625 C 11.90625 -5.195312 11.234375 -4.648438 10.359375 -4.265625 L 13.328125 0 Z M 9.984375 -8.453125 C 9.984375 -9.203125 9.738281 -9.773438 9.25 -10.171875 C 8.769531 -10.578125 8.070312 -10.78125 7.15625 -10.78125 L 4.640625 -10.78125 L 4.640625 -6.140625 L 7.15625 -6.140625 C 8.070312 -6.140625 8.769531 -6.34375 9.25 -6.75 C 9.738281 -7.15625 9.984375 -7.722656 9.984375 -8.453125 Z M 9.984375 -8.453125 "/></g></g></g><g fill="#ffffff" fill-opacity="1"><g transform="translate(102.518405, 43.074972)"><g><path d="M 7.46875 0.234375 C 5.570312 0.234375 4.09375 -0.289062 3.03125 -1.34375 C 1.976562 -2.394531 1.453125 -3.894531 1.453125 -5.84375 L 1.453125 -13.28125 L 4.53125 -13.28125 L 4.53125 -5.953125 C 4.53125 -3.578125 5.519531 -2.390625 7.5 -2.390625 C 8.457031 -2.390625 9.1875 -2.675781 9.6875 -3.25 C 10.195312 -3.820312 10.453125 -4.722656 10.453125 -5.953125 L 10.453125 -13.28125 L 13.484375 -13.28125 L 13.484375 -5.84375 C 13.484375 -3.894531 12.953125 -2.394531 11.890625 -1.34375 C 10.835938 -0.289062 9.363281 0.234375 7.46875 0.234375 Z M 7.46875 0.234375 "/></g></g></g><g fill="#ffffff" fill-opacity="1"><g transform="translate(119.177076, 43.074972)"><g><path d="M 1.578125 -13.28125 L 7.609375 -13.28125 C 9.046875 -13.28125 10.316406 -13.003906 11.421875 -12.453125 C 12.535156 -11.898438 13.394531 -11.125 14 -10.125 C 14.613281 -9.125 14.921875 -7.960938 14.921875 -6.640625 C 14.921875 -5.304688 14.613281 -4.140625 14 -3.140625 C 13.394531 -2.148438 12.535156 -1.378906 11.421875 -0.828125 C 10.316406 -0.273438 9.046875 0 7.609375 0 L 1.578125 0 Z M 7.453125 -2.515625 C 8.785156 -2.515625 9.84375 -2.882812 10.625 -3.625 C 11.414062 -4.375 11.8125 -5.378906 11.8125 -6.640625 C 11.8125 -7.898438 11.414062 -8.898438 10.625 -9.640625 C 9.84375 -10.378906 8.785156 -10.75 7.453125 -10.75 L 4.640625 -10.75 L 4.640625 -2.515625 Z M 7.453125 -2.515625 "/></g></g></g><g fill="#ffffff" fill-opacity="1"><g transform="translate(136.556714, 43.074972)"><g><path d="M 11.859375 -2.46875 L 11.859375 0 L 1.578125 0 L 1.578125 -13.28125 L 11.609375 -13.28125 L 11.609375 -10.8125 L 4.625 -10.8125 L 4.625 -7.921875 L 10.796875 -7.921875 L 10.796875 -5.53125 L 4.625 -5.53125 L 4.625 -2.46875 Z M 11.859375 -2.46875 "/></g></g></g><g fill="#ffffff" fill-opacity="1"><g transform="translate(150.995586, 43.074972)"><g><path d="M 5.9375 0.234375 C 4.882812 0.234375 3.867188 0.09375 2.890625 -0.1875 C 1.910156 -0.476562 1.125 -0.851562 0.53125 -1.3125 L 1.578125 -3.625 C 2.140625 -3.207031 2.8125 -2.867188 3.59375 -2.609375 C 4.382812 -2.359375 5.171875 -2.234375 5.953125 -2.234375 C 6.828125 -2.234375 7.472656 -2.363281 7.890625 -2.625 C 8.304688 -2.882812 8.515625 -3.226562 8.515625 -3.65625 C 8.515625 -3.976562 8.390625 -4.242188 8.140625 -4.453125 C 7.898438 -4.660156 7.585938 -4.828125 7.203125 -4.953125 C 6.816406 -5.078125 6.296875 -5.21875 5.640625 -5.375 C 4.617188 -5.613281 3.785156 -5.851562 3.140625 -6.09375 C 2.503906 -6.332031 1.953125 -6.71875 1.484375 -7.25 C 1.023438 -7.78125 0.796875 -8.488281 0.796875 -9.375 C 0.796875 -10.144531 1.003906 -10.84375 1.421875 -11.46875 C 1.835938 -12.09375 2.46875 -12.585938 3.3125 -12.953125 C 4.15625 -13.316406 5.179688 -13.5 6.390625 -13.5 C 7.234375 -13.5 8.0625 -13.398438 8.875 -13.203125 C 9.6875 -13.003906 10.394531 -12.710938 11 -12.328125 L 10.046875 -10 C 8.828125 -10.695312 7.601562 -11.046875 6.375 -11.046875 C 5.507812 -11.046875 4.867188 -10.90625 4.453125 -10.625 C 4.046875 -10.34375 3.84375 -9.972656 3.84375 -9.515625 C 3.84375 -9.066406 4.078125 -8.726562 4.546875 -8.5 C 5.023438 -8.28125 5.753906 -8.066406 6.734375 -7.859375 C 7.742188 -7.617188 8.570312 -7.375 9.21875 -7.125 C 9.863281 -6.882812 10.414062 -6.503906 10.875 -5.984375 C 11.34375 -5.472656 11.578125 -4.773438 11.578125 -3.890625 C 11.578125 -3.128906 11.363281 -2.4375 10.9375 -1.8125 C 10.507812 -1.1875 9.875 -0.6875 9.03125 -0.3125 C 8.1875 0.0507812 7.15625 0.234375 5.9375 0.234375 Z M 5.9375 0.234375 "/></g></g></g><g fill="#ffffff" fill-opacity="1"><g transform="translate(164.808352, 43.074972)"><g><path d="M 6.40625 -5.21875 L 4.625 -3.359375 L 4.625 0 L 1.578125 0 L 1.578125 -13.28125 L 4.625 -13.28125 L 4.625 -7.078125 L 10.515625 -13.28125 L 13.921875 -13.28125 L 8.421875 -7.359375 L 14.25 0 L 10.65625 0 Z M 6.40625 -5.21875 "/></g></g></g></svg>